 <svg xmlns="http://www.w3.org/2000/svg" id="standalonediagram" viewBox="0 0 1200 560" xml:space="preserve" version="1.1" > <style type="text/css"> #diagram-download { fill: #ccc; } #diagram-download:hover { fill: #000; } .box line { stroke: #444; stroke-width: 4; stroke-dasharray: 4; } #flowline path, #flowline circle { fill: none; stroke-width: 7; stroke-linecap: round; stroke: #444; } .node { fill: #ffffff; stroke: #444; stroke-width: 2.7; } .current-activity, .node:hover { fill: #ffdd59; } .box { display: none; } .node:hover + .box { display: inline; } .code { pointer-events: none; font-weight: bold; font-size: 12px; text-anchor: middle; fill: #000; fill: #000; } .activity-group text { font-weight: normal; font-size: 19px; fill: #777; cursor: crosshair; } .activity-group:hover text { fill: #000000; } .title-a:hover ~ .group-a .node { fill: #ffdd59; } .title-b:hover ~ .group-b .node { fill: #ffdd59; } .title-c:hover ~ .group-c .node { fill: #ffdd59; } .title-d:hover ~ .group-d .node { fill: #ffdd59; } .title-e:hover ~ .group-e .node { fill: #ffdd59; } .title-f:hover ~ .group-f .node { fill: #ffdd59; } .title-g:hover ~ .group-g .node { fill: #ffdd59; } .box text { font-size: 18px; fill: #ffffff; } #standalonediagram text { font-family: Arial, Helvetica, sans-serif; } #standalonediagram .code { font-family: Arial, Helvetica, sans-serif; } .box rect { fill: #444; rx: 10px; } </style> <rect x="0" y="0" width="1200" height="560" stroke="none" fill="#ffffff" /> <g class="activity-group title-a"> <text text-anchor="middle" x="185" y="433" >Запуск проекта</text> </g> <g class="activity-group title-b"> <text text-anchor="middle" x="310" y="165" >Планирование цикла</text> </g> <g class="activity-group title-c"> <text text-anchor="middle" x="703" y="133" >Еженедельные действия</text> </g> <g class="activity-group title-d"> <text text-anchor="middle" x="655" y="263" >Ежедневные</text> <text text-anchor="middle" x="655" y="287" >действия</text> </g> <g class="activity-group title-e"> <text text-anchor="middle" x="830" y="533" >Закрытие цикла</text> </g> <g class="activity-group title-f"> <text text-anchor="middle" x="1005" y="398" >Закрытие</text> <text text-anchor="middle" x="1005" y="422" >проекта</text> </g> <g class="activity-group title-g"> <text text-anchor="middle" x="1125" y="360" >После</text> <text text-anchor="middle" x="1125" y="384" >проекта</text> </g> <g id="flowline"> <path d="m 10,515 c 260,-15 309,-42 355,-75 29,-21 55,-60 55,-155" /> <circle cx="702" cy="210" r="158" /> <circle cx="655" cy="270" r="80" /> <circle cx="660" cy="280" r="240" /> <path d="m 900,285 c 0,82 21,139 43,161 C 972,474 1053,496 1185,515" /> <circle cx="1125" cy="464" r="40" /> </g> <circle class="node " r="15" cx="40" cy="512" id="A01" /> <text class="code" x="40" y="516">A01</text> <circle class="node " r="15" cx="84" cy="509" id="A02" /> <text class="code" x="84" y="513">A02</text> <circle class="node " r="15" cx="128" cy="505" id="A03" /> <text class="code" x="128" y="509">A03</text> <circle class="node " r="15" cx="173" cy="501" id="A04" /> <text class="code" x="173" y="505">A04</text> <circle class="node " r="15" cx="217" cy="494" id="A05" /> <text class="code" x="217" y="498">A05</text> <circle class="node " r="15" cx="260" cy="485" id="A06" /> <text class="code" x="260" y="489">A06</text> <circle class="node " r="15" cx="302" cy="473" id="A07" /> <text class="code" x="302" y="477">A07</text> <circle class="node " r="15" cx="342" cy="455" id="A08" /> <text class="code" x="342" y="459">A08</text> <circle class="node " r="15" cx="376" cy="430" id="A09" /> <text class="code" x="376" y="434">A09</text> <circle class="node " r="15" cx="401" cy="395" id="A10" /> <text class="code" x="401" y="399">A10</text> <circle class="node " r="15" cx="423" cy="240" id="B01" /> <text class="code" x="423" y="244">B01</text> <circle class="node " r="15" cx="435" cy="197" id="B02" /> <text class="code" x="435" y="201">B02</text> <circle class="node " r="15" cx="453" cy="157" id="B03" /> <text class="code" x="453" y="161">B03</text> <circle class="node " r="15" cx="479" cy="122" id="B04" /> <text class="code" x="479" y="126">B04</text> <circle class="node " r="15" cx="510" cy="92" id="B05" /> <text class="code" x="510" y="96">B05</text> <circle class="node " r="15" cx="851.5" cy="259" id="C01" /> <text class="code" x="851.5" y="263">C01</text> <circle class="node " r="15" cx="834" cy="297" id="C02" /> <text class="code" x="834" y="301">C02</text> <circle class="node " r="15" cx="805" cy="329" id="C03" /> <text class="code" x="805" y="333">C03</text> <circle class="node " r="15" cx="768" cy="351" id="C04" /> <text class="code" x="768" y="355">C04</text> <circle class="node " r="15" cx="659" cy="190" id="D01" /> <text class="code" x="659" y="194">D01</text> <circle class="node " r="15" cx="699" cy="203" id="D02" /> <text class="code" x="699" y="207">D02</text> <circle class="node " r="15" cx="849" cy="430" id="E01" /> <text class="code" x="849" y="434">E01</text> <circle class="node " r="15" cx="819" cy="460" id="E02" /> <text class="code" x="819" y="464">E02</text> <circle class="node " r="15" cx="785" cy="484" id="E03" /> <text class="code" x="785" y="488">E03</text> <circle class="node " r="15" cx="915" cy="392" id="F01" /> <text class="code" x="915" y="396">F01</text> <circle class="node " r="15" cx="930" cy="428" id="F02" /> <text class="code" x="930" y="432">F02</text> <circle class="node " r="15" cx="958" cy="457" id="F03" /> <text class="code" x="958" y="461">F03</text> <circle class="node " r="15" cx="992" cy="475" id="F04" /> <text class="code" x="992" y="479">F04</text> <circle class="node " r="15" cx="1031" cy="487" id="F05" /> <text class="code" x="1031" y="491">F05</text> <circle class="node " r="15" cx="1069" cy="495" id="F06" /> <text class="code" x="1069" y="499">F06</text> <circle class="node " r="15" cx="1163" cy="455" id="G01" /> <text class="code" x="1163" y="459">G01</text> <circle class="node " r="15" cx="1134" cy="425" id="G02" /> <text class="code" x="1134" y="429">G02</text> <circle class="node " r="15" cx="1093.5" cy="440" id="G03" /> <text class="code" x="1093.5" y="444">G03</text> <text x="7" y="545" style="fill: #777; stroke: none; font-size: 9px;">https://p3.express/ru/manual/v2/</text> <circle cx="45" cy="45" r="30" fill="#227093" /> <circle cx="53.1" cy="39" r="20.1" fill="#34ace0" /> <circle cx="45" cy="45" r="10.2" fill="#ffffff" /> <text x="90" y="53" style="fill: #227093; stroke: none; font-size: 28px;">P3.express</text> </svg> 