 <svg xmlns="http://www.w3.org/2000/svg" id="standalonediagram" viewBox="-65 -550 1320 1750" xml:space="preserve" version="1.1" > <style type="text/css"> #diagram-download { fill: #ccc; } #diagram-download:hover { fill: #000; } .box line { stroke: #444; stroke-width: 4; stroke-dasharray: 4; } #flowline path, #flowline circle { fill: none; stroke-width: 7; stroke-linecap: round; stroke: #444; } .node { fill: #ffffff; stroke: #444; stroke-width: 2.7; } .current-activity, .node:hover { fill: #ffdd59; } .box { display: none; } .node:hover + .box { display: inline; } .code { pointer-events: none; font-weight: bold; font-size: 12px; text-anchor: middle; fill: #000; fill: #000; } .activity-group text { font-weight: normal; font-size: 19px; fill: #777; cursor: crosshair; } .activity-group:hover text { fill: #000000; } .title-a:hover ~ .group-a .node { fill: #ffdd59; } .title-b:hover ~ .group-b .node { fill: #ffdd59; } .title-c:hover ~ .group-c .node { fill: #ffdd59; } .title-d:hover ~ .group-d .node { fill: #ffdd59; } .title-e:hover ~ .group-e .node { fill: #ffdd59; } .title-f:hover ~ .group-f .node { fill: #ffdd59; } .title-g:hover ~ .group-g .node { fill: #ffdd59; } .box text { font-size: 18px; fill: #ffffff; } #standalonediagram text { font-family: Arial, Helvetica, sans-serif; } #standalonediagram .code { font-family: Arial, Helvetica, sans-serif; } .box rect { fill: #444; rx: 10px; } </style> <rect x="-65" y="-550" width="1320" height="1750" stroke="none" fill="#ffffff" /> <g class="activity-group title-a"> <text text-anchor="middle" x="185" y="433" >Запуск проекта</text> </g> <g class="activity-group title-b"> <text text-anchor="middle" x="310" y="165" >Планирование цикла</text> </g> <g class="activity-group title-c"> <text text-anchor="middle" x="703" y="133" >Еженедельные действия</text> </g> <g class="activity-group title-d"> <text text-anchor="middle" x="655" y="263" >Ежедневные</text> <text text-anchor="middle" x="655" y="287" >действия</text> </g> <g class="activity-group title-e"> <text text-anchor="middle" x="830" y="533" >Закрытие цикла</text> </g> <g class="activity-group title-f"> <text text-anchor="middle" x="1005" y="398" >Закрытие</text> <text text-anchor="middle" x="1005" y="422" >проекта</text> </g> <g class="activity-group title-g"> <text text-anchor="middle" x="1125" y="360" >После</text> <text text-anchor="middle" x="1125" y="384" >проекта</text> </g> <g id="flowline"> <path d="m 10,515 c 260,-15 309,-42 355,-75 29,-21 55,-60 55,-155" /> <circle cx="702" cy="210" r="158" /> <circle cx="655" cy="270" r="80" /> <circle cx="660" cy="280" r="240" /> <path d="m 900,285 c 0,82 21,139 43,161 C 972,474 1053,496 1185,515" /> <circle cx="1125" cy="464" r="40" /> </g> <circle class="node " r="15" cx="40" cy="512" id="A01" /> <line x1="40" y1="528" x2="40" y2="1020" stroke="#999" stroke-dasharray="5,5" stroke-width="0.7" /> <text x="35" y="1040" text-anchor="start">Назначить спонсора</text> <text class="code" x="40" y="516">A01</text> <circle class="node " r="15" cx="84" cy="509" id="A02" /> <line x1="84" y1="525" x2="84" y2="990" stroke="#999" stroke-dasharray="5,5" stroke-width="0.7" /> <text x="79" y="1010" text-anchor="start">Назначить менеджера проекта</text> <text class="code" x="84" y="513">A02</text> <circle class="node " r="15" cx="128" cy="505" id="A03" /> <line x1="128" y1="521" x2="128" y2="960" stroke="#999" stroke-dasharray="5,5" stroke-width="0.7" /> <text x="123" y="980" text-anchor="start">Назначить ключевых членов команды</text> <text class="code" x="128" y="509">A03</text> <circle class="node " r="15" cx="173" cy="501" id="A04" /> <line x1="173" y1="517" x2="173" y2="930" stroke="#999" stroke-dasharray="5,5" stroke-width="0.7" /> <text x="168" y="950" text-anchor="start">Описать проект</text> <text class="code" x="173" y="505">A04</text> <circle class="node " r="15" cx="217" cy="494" id="A05" /> <line x1="217" y1="510" x2="217" y2="900" stroke="#999" stroke-dasharray="5,5" stroke-width="0.7" /> <text x="212" y="920" text-anchor="start">Определить ожидаемые результаты</text> <text class="code" x="217" y="498">A05</text> <circle class="node " r="15" cx="260" cy="485" id="A06" /> <line x1="260" y1="501" x2="260" y2="870" stroke="#999" stroke-dasharray="5,5" stroke-width="0.7" /> <text x="255" y="890" text-anchor="start">Определить риски и запланировать меры реагирования</text> <text class="code" x="260" y="489">A06</text> <circle class="node " r="15" cx="302" cy="473" id="A07" /> <line x1="302" y1="489" x2="302" y2="840" stroke="#999" stroke-dasharray="5,5" stroke-width="0.7" /> <text x="297" y="860" text-anchor="start">Провести ревью запуска проекта</text> <text class="code" x="302" y="477">A07</text> <circle class="node " r="15" cx="342" cy="455" id="A08" /> <line x1="342" y1="471" x2="342" y2="810" stroke="#999" stroke-dasharray="5,5" stroke-width="0.7" /> <text x="337" y="830" text-anchor="start">Решить «Go/No-go»</text> <text class="code" x="342" y="459">A08</text> <circle class="node " r="15" cx="376" cy="430" id="A09" /> <line x1="376" y1="446" x2="376" y2="780" stroke="#999" stroke-dasharray="5,5" stroke-width="0.7" /> <text x="371" y="800" text-anchor="start">Провести стартовую встречу проекта</text> <text class="code" x="376" y="434">A09</text> <circle class="node " r="15" cx="401" cy="395" id="A10" /> <line x1="401" y1="411" x2="401" y2="750" stroke="#999" stroke-dasharray="5,5" stroke-width="0.7" /> <text x="396" y="770" text-anchor="start">Направить фокусированную коммуникацию</text> <text class="code" x="401" y="399">A10</text> <circle class="node " r="15" cx="423" cy="240" id="B01" /> <line x1="423" y1="224" x2="423" y2="-80" stroke="#999" stroke-dasharray="5,5" stroke-width="0.7" /> <text x="428" y="-90" text-anchor="end">Обновить и детализировать планы</text> <text class="code" x="423" y="244">B01</text> <circle class="node " r="15" cx="435" cy="197" id="B02" /> <line x1="435" y1="181" x2="435" y2="-110" stroke="#999" stroke-dasharray="5,5" stroke-width="0.7" /> <text x="440" y="-120" text-anchor="end">Провести ежемесячное ревью</text> <text class="code" x="435" y="201">B02</text> <circle class="node " r="15" cx="453" cy="157" id="B03" /> <line x1="453" y1="141" x2="453" y2="-140" stroke="#999" stroke-dasharray="5,5" stroke-width="0.7" /> <text x="458" y="-150" text-anchor="end">Решить «Go/No-Go»</text> <text class="code" x="453" y="161">B03</text> <circle class="node " r="15" cx="479" cy="122" id="B04" /> <line x1="479" y1="106" x2="479" y2="-170" stroke="#999" stroke-dasharray="5,5" stroke-width="0.7" /> <text x="484" y="-180" text-anchor="end">Провести стартовую встречу цикла</text> <text class="code" x="479" y="126">B04</text> <circle class="node " r="15" cx="510" cy="92" id="B05" /> <line x1="510" y1="76" x2="510" y2="-200" stroke="#999" stroke-dasharray="5,5" stroke-width="0.7" /> <text x="515" y="-210" text-anchor="end">Направить фокусированную коммуникацию</text> <text class="code" x="510" y="96">B05</text> <circle class="node " r="15" cx="851.5" cy="259" id="C01" /> <line x1="851.5" y1="243" x2="851.5" y2="-140" stroke="#999" stroke-dasharray="5,5" stroke-width="0.7" /> <text x="846.5" y="-150" text-anchor="start">Оценить и зафиксировать прогресс</text> <text class="code" x="851.5" y="263">C01</text> <circle class="node " r="15" cx="834" cy="297" id="C02" /> <line x1="834" y1="281" x2="834" y2="-170" stroke="#999" stroke-dasharray="5,5" stroke-width="0.7" /> <text x="829" y="-180" text-anchor="start">Реагировать на отклонения</text> <text class="code" x="834" y="301">C02</text> <circle class="node " r="15" cx="805" cy="329" id="C03" /> <line x1="805" y1="313" x2="805" y2="-200" stroke="#999" stroke-dasharray="5,5" stroke-width="0.7" /> <text x="800" y="-210" text-anchor="start">Провести еженедельную встречу</text> <text class="code" x="805" y="333">C03</text> <circle class="node " r="15" cx="768" cy="351" id="C04" /> <line x1="768" y1="335" x2="768" y2="-230" stroke="#999" stroke-dasharray="5,5" stroke-width="0.7" /> <text x="763" y="-240" text-anchor="start">Направить фокусированную коммуникацию</text> <text class="code" x="768" y="355">C04</text> <circle class="node " r="15" cx="659" cy="190" id="D01" /> <line x1="659" y1="174" x2="659" y2="-300" stroke="#999" stroke-dasharray="5,5" stroke-width="0.7" /> <text x="664" y="-310" text-anchor="end">Управлять рисками, проблемами и запросами на изменения</text> <text class="code" x="659" y="194">D01</text> <circle class="node " r="15" cx="699" cy="203" id="D02" /> <line x1="699" y1="187" x2="699" y2="-330" stroke="#999" stroke-dasharray="5,5" stroke-width="0.7" /> <text x="704" y="-340" text-anchor="end">Принять результаты работы</text> <text class="code" x="699" y="207">D02</text> <circle class="node " r="15" cx="849" cy="430" id="E01" /> <line x1="849" y1="446" x2="849" y2="690" stroke="#999" stroke-dasharray="5,5" stroke-width="0.7" /> <text x="854" y="710" text-anchor="end">Оценить удовлетворенность стейкхолдеров</text> <text class="code" x="849" y="434">E01</text> <circle class="node " r="15" cx="819" cy="460" id="E02" /> <line x1="819" y1="476" x2="819" y2="660" stroke="#999" stroke-dasharray="5,5" stroke-width="0.7" /> <text x="824" y="680" text-anchor="end">Извлечь уроки и запланировать улучшения</text> <text class="code" x="819" y="464">E02</text> <circle class="node " r="15" cx="785" cy="484" id="E03" /> <line x1="785" y1="500" x2="785" y2="630" stroke="#999" stroke-dasharray="5,5" stroke-width="0.7" /> <text x="790" y="650" text-anchor="end">Направить фокусированную коммуникацию</text> <text class="code" x="785" y="488">E03</text> <circle class="node " r="15" cx="915" cy="392" id="F01" /> <line x1="915" y1="408" x2="915" y2="940" stroke="#999" stroke-dasharray="5,5" stroke-width="0.7" /> <text x="920" y="960" text-anchor="end">Передать продукт</text> <text class="code" x="915" y="396">F01</text> <circle class="node " r="15" cx="930" cy="428" id="F02" /> <line x1="930" y1="444" x2="930" y2="970" stroke="#999" stroke-dasharray="5,5" stroke-width="0.7" /> <text x="935" y="990" text-anchor="end">Оценить удовлетворённость стейкхолдеров</text> <text class="code" x="930" y="432">F02</text> <circle class="node " r="15" cx="958" cy="457" id="F03" /> <line x1="958" y1="473" x2="958" y2="1000" stroke="#999" stroke-dasharray="5,5" stroke-width="0.7" /> <text x="963" y="1020" text-anchor="end">Сделать ревью этапа закрытия</text> <text class="code" x="958" y="461">F03</text> <circle class="node " r="15" cx="992" cy="475" id="F04" /> <line x1="992" y1="491" x2="992" y2="1030" stroke="#999" stroke-dasharray="5,5" stroke-width="0.7" /> <text x="997" y="1050" text-anchor="end">Заархивировать проектную документацию</text> <text class="code" x="992" y="479">F04</text> <circle class="node " r="15" cx="1031" cy="487" id="F05" /> <line x1="1031" y1="503" x2="1031" y2="1060" stroke="#999" stroke-dasharray="5,5" stroke-width="0.7" /> <text x="1036" y="1080" text-anchor="end">Отметить окончание проекта!</text> <text class="code" x="1031" y="491">F05</text> <circle class="node " r="15" cx="1069" cy="495" id="F06" /> <line x1="1069" y1="511" x2="1069" y2="1090" stroke="#999" stroke-dasharray="5,5" stroke-width="0.7" /> <text x="1074" y="1110" text-anchor="end">Направить фокусированную коммуникацию</text> <text class="code" x="1069" y="499">F06</text> <circle class="node " r="15" cx="1163" cy="455" id="G01" /> <line x1="1163" y1="439" x2="1163" y2="-50" stroke="#999" stroke-dasharray="5,5" stroke-width="0.7" /> <text x="1168" y="-60" text-anchor="end">Оценить полученные выгоды</text> <text class="code" x="1163" y="459">G01</text> <circle class="node " r="15" cx="1134" cy="425" id="G02" /> <line x1="1134" y1="409" x2="1134" y2="-20" stroke="#999" stroke-dasharray="5,5" stroke-width="0.7" /> <text x="1139" y="-30" text-anchor="end">Сгенерировать новые идеи</text> <text class="code" x="1134" y="429">G02</text> <circle class="node " r="15" cx="1093.5" cy="440" id="G03" /> <line x1="1093.5" y1="424" x2="1093.5" y2="10" stroke="#999" stroke-dasharray="5,5" stroke-width="0.7" /> <text x="1098.5" y="0" text-anchor="end">Направить фокусированную коммуникацию</text> <text class="code" x="1093.5" y="444">G03</text> <text x="7" y="1160" style="fill: #777; stroke: none; font-size: 12px;">https://p3.express/ru/manual/v2/</text> <circle cx="45" cy="-450" r="30" fill="#227093" /> <circle cx="53.1" cy="-456" r="20.1" fill="#34ace0" /> <circle cx="45" cy="-450" r="10.2" fill="#ffffff" /> <text x="90" y="-440" style="fill: #227093; stroke: none; font-size: 28px;">P3.express</text> </svg> 